<svg height="464pt" viewBox="-56 0 464 464" width="464pt" xmlns="http://www.w3.org/2000/svg"><path d="m328 424 24 40h-352l24-40-16-32v-320l8-32-16-40h352l-16 40 8 32v320zm0 0" fill="#c0ab91"/><path d="m296 232c0 66.273438-53.726562 120-120 120s-120-53.726562-120-120 53.726562-120 120-120 120 53.726562 120 120zm0 0" fill="#ffda44"/><path d="m224.480469 204c22.078125 38.238281-8.480469 97.28125-8.480469 97.28125s-66.398438-3.042969-88.480469-41.28125c-22.078125-38.238281 8.480469-97.28125 8.480469-97.28125s66.398438 3.042969 88.480469 41.28125zm0 0" fill="#4e901e"/><path d="m222.929688 297.28125-18.402344-31.898438 11.304687-20.796874c2.109375-3.886719.671875-8.746094-3.210937-10.855469-3.882813-2.109375-8.742188-.671875-10.851563 3.214843l-6.625 12.167969-32.214843-55.753906c-2.226563-3.792969-7.09375-5.082031-10.902344-2.882813-3.808594 2.199219-5.128906 7.0625-2.957032 10.882813l20.160157 34.914063-23.902344-3.136719c-4.367187-.550781-8.359375 2.53125-8.929687 6.898437-.574219 4.363282 2.488281 8.371094 6.847656 8.964844l36.066406 4.734375 29.757812 51.546875c1.421876 2.496094 4.066407 4.039062 6.9375 4.042969 2.871094.007812 5.527344-1.523438 6.957032-4.015625 1.429687-2.488282 1.414062-5.550782-.035156-8.027344zm0 0" fill="#00665a"/><g fill="#a8967f"><path d="m44 72c6.628906 0 12 5.371094 12 12v24c0 6.628906-5.371094 12-12 12s-12-5.371094-12-12v-24c0-6.628906 5.371094-12 12-12zm0 0"/><path d="m84 32h224c6.628906 0 12 5.371094 12 12s-5.371094 12-12 12h-224c-6.628906 0-12-5.371094-12-12s5.371094-12 12-12zm0 0"/><path d="m60 408h176c6.628906 0 12 5.371094 12 12s-5.371094 12-12 12h-176c-6.628906 0-12-5.371094-12-12s5.371094-12 12-12zm0 0"/></g></svg>